<svg width="600" height="420" viewBox="0 0 600 420" fill="none" xmlns="http://www.w3.org/2000/svg">
  <rect width="600" height="420" rx="36" fill="url(#paint0_linear)"/>
  <circle cx="180" cy="210" r="120" fill="url(#paint1_radial)" opacity="0.5"/>
  <circle cx="430" cy="160" r="150" fill="url(#paint2_radial)" opacity="0.45"/>
  <path d="M205 142C205 101 238 68 279 68H321C362 68 395 101 395 142V188C395 210 377 228 355 228H245C223 228 205 210 205 188V142Z" stroke="white" stroke-width="18" stroke-linecap="round" stroke-linejoin="round" opacity="0.85"/>
  <path d="M214 246C214 231 226 219 241 219H257C272 219 284 231 284 246V270C284 285 272 297 257 297H241C226 297 214 285 214 270V246Z" fill="url(#paint3_linear)" opacity="0.9"/>
  <path d="M316 246C316 231 328 219 343 219H359C374 219 386 231 386 246V270C386 285 374 297 359 297H343C328 297 316 285 316 270V246Z" fill="url(#paint4_linear)" opacity="0.9"/>
  <defs>
    <linearGradient id="paint0_linear" x1="42" y1="36" x2="564" y2="384" gradientUnits="userSpaceOnUse">
      <stop stop-color="#4F46E5"/>
      <stop offset="1" stop-color="#22D3EE"/>
    </linearGradient>
    <radialGradient id="paint1_radial" cx="0" cy="0" r="1" gradientUnits="userSpaceOnUse" gradientTransform="translate(180 210) rotate(90) scale(140)">
      <stop stop-color="#C7D2FE"/>
      <stop offset="1" stop-color="#1E1B4B" stop-opacity="0"/>
    </radialGradient>
    <radialGradient id="paint2_radial" cx="0" cy="0" r="1" gradientUnits="userSpaceOnUse" gradientTransform="translate(430 160) rotate(90) scale(170)">
      <stop stop-color="#A855F7"/>
      <stop offset="1" stop-color="#1E40AF" stop-opacity="0"/>
    </radialGradient>
    <linearGradient id="paint3_linear" x1="214" y1="219" x2="284" y2="297" gradientUnits="userSpaceOnUse">
      <stop stop-color="#6366F1"/>
      <stop offset="1" stop-color="#8B5CF6"/>
    </linearGradient>
    <linearGradient id="paint4_linear" x1="316" y1="219" x2="386" y2="297" gradientUnits="userSpaceOnUse">
      <stop stop-color="#818CF8"/>
      <stop offset="1" stop-color="#38BDF8"/>
    </linearGradient>
  </defs>
</svg>

