<svg width="600" height="420" viewBox="0 0 600 420" fill="none" xmlns="http://www.w3.org/2000/svg">
  <rect width="600" height="420" rx="36" fill="url(#paint0_linear)"/>
  <circle cx="180" cy="260" r="130" fill="url(#paint1_radial)" opacity="0.5"/>
  <circle cx="430" cy="150" r="140" fill="url(#paint2_radial)" opacity="0.45"/>
  <ellipse cx="300" cy="222" rx="132" ry="118" fill="url(#paint3_linear)"/>
  <ellipse cx="300" cy="222" rx="98" ry="84" fill="url(#paint4_radial)" stroke="rgba(255,255,255,0.4)" stroke-width="8"/>
  <circle cx="300" cy="222" r="42" fill="url(#paint5_linear)"/>
  <circle cx="300" cy="222" r="12" fill="rgba(255,255,255,0.65)"/>
  <path d="M210 116C210 100 222 88 238 88H362C378 88 390 100 390 116" stroke="rgba(255,255,255,0.45)" stroke-width="12" stroke-linecap="round"/>
  <defs>
    <linearGradient id="paint0_linear" x1="520" y1="420" x2="120" y2="20" gradientUnits="userSpaceOnUse">
      <stop stop-color="#1F2937"/>
      <stop offset="0.45" stop-color="#0B1120"/>
      <stop offset="1" stop-color="#111827"/>
    </linearGradient>
    <radialGradient id="paint1_radial" cx="0" cy="0" r="1" gradientUnits="userSpaceOnUse" gradientTransform="translate(180 260) rotate(90) scale(140)">
      <stop stop-color="#0EA5E9"/>
      <stop offset="1" stop-color="#0B1120" stop-opacity="0"/>
    </radialGradient>
    <radialGradient id="paint2_radial" cx="0" cy="0" r="1" gradientUnits="userSpaceOnUse" gradientTransform="translate(430 150) rotate(90) scale(150)">
      <stop stop-color="#38BDF8"/>
      <stop offset="1" stop-color="#312E81" stop-opacity="0"/>
    </radialGradient>
    <linearGradient id="paint3_linear" x1="180" y1="104" x2="420" y2="336" gradientUnits="userSpaceOnUse">
      <stop stop-color="#0F172A"/>
      <stop offset="1" stop-color="#1E293B"/>
    </linearGradient>
    <radialGradient id="paint4_radial" cx="0" cy="0" r="1" gradientUnits="userSpaceOnUse" gradientTransform="translate(300 222) rotate(90) scale(84 98)">
      <stop stop-color="#1E293B"/>
      <stop offset="1" stop-color="#0F172A"/>
    </radialGradient>
    <linearGradient id="paint5_linear" x1="258" y1="180" x2="344" y2="266" gradientUnits="userSpaceOnUse">
      <stop stop-color="#38BDF8"/>
      <stop offset="1" stop-color="#0EA5E9"/>
    </linearGradient>
  </defs>
</svg>

