<svg width="600" height="420" viewBox="0 0 600 420" fill="none" xmlns="http://www.w3.org/2000/svg">
  <rect width="600" height="420" rx="36" fill="url(#paint0_linear)"/>
  <circle cx="180" cy="140" r="110" fill="url(#paint1_radial)" opacity="0.45"/>
  <circle cx="448" cy="250" r="140" fill="url(#paint2_radial)" opacity="0.5"/>
  <rect x="180" y="160" width="240" height="140" rx="28" fill="url(#paint3_linear)" stroke="rgba(255,255,255,0.6)" stroke-width="6"/>
  <rect x="200" y="178" width="64" height="104" rx="16" fill="#FACC15" opacity="0.9"/>
  <rect x="284" y="178" width="116" height="104" rx="20" fill="url(#paint4_linear)"/>
  <path d="M232 152V112" stroke="#F8FAFC" stroke-width="10" stroke-linecap="round" opacity="0.85"/>
  <path d="M260 152L260 94" stroke="#F8FAFC" stroke-width="10" stroke-linecap="round" opacity="0.6"/>
  <path d="M292 152L292 120" stroke="#F8FAFC" stroke-width="10" stroke-linecap="round" opacity="0.45"/>
  <circle cx="330" cy="232" r="18" fill="rgba(248, 250, 252, 0.4)"/>
  <rect x="320" y="240" width="120" height="36" rx="18" fill="rgba(15,23,42,0.24)" opacity="0.6"/>
  <defs>
    <linearGradient id="paint0_linear" x1="120" y1="40" x2="520" y2="360" gradientUnits="userSpaceOnUse">
      <stop stop-color="#FDE68A"/>
      <stop offset="0.6" stop-color="#F9A8D4"/>
      <stop offset="1" stop-color="#F472B6"/>
    </linearGradient>
    <radialGradient id="paint1_radial" cx="0" cy="0" r="1" gradientUnits="userSpaceOnUse" gradientTransform="translate(180 140) rotate(90) scale(120)">
      <stop stop-color="#FACC15"/>
      <stop offset="1" stop-color="#FB7185" stop-opacity="0"/>
    </radialGradient>
    <radialGradient id="paint2_radial" cx="0" cy="0" r="1" gradientUnits="userSpaceOnUse" gradientTransform="translate(448 250) rotate(90) scale(150)">
      <stop stop-color="#F472B6"/>
      <stop offset="1" stop-color="#F97316" stop-opacity="0"/>
    </radialGradient>
    <linearGradient id="paint3_linear" x1="180" y1="160" x2="420" y2="300" gradientUnits="userSpaceOnUse">
      <stop stop-color="rgba(255,255,255,0.8)"/>
      <stop offset="1" stop-color="rgba(255,255,255,0.55)"/>
    </linearGradient>
    <linearGradient id="paint4_linear" x1="284" y1="178" x2="400" y2="282" gradientUnits="userSpaceOnUse">
      <stop stop-color="#F97316"/>
      <stop offset="1" stop-color="#F87171"/>
    </linearGradient>
  </defs>
</svg>

