<svg width="600" height="420" viewBox="0 0 600 420" fill="none" xmlns="http://www.w3.org/2000/svg">
  <rect width="600" height="420" rx="36" fill="url(#paint0_linear)"/>
  <circle cx="188" cy="240" r="126" fill="url(#paint1_radial)" opacity="0.5"/>
  <circle cx="430" cy="168" r="140" fill="url(#paint2_radial)" opacity="0.45"/>
  <path d="M214 170H322C336 170 348 182 348 196V258C348 280 330 298 308 298H228C206 298 188 280 188 258V196C188 182 200 170 214 170Z" fill="url(#paint3_linear)" stroke="rgba(255,255,255,0.5)" stroke-width="8"/>
  <path d="M348 196H366C386 196 402 212 402 232C402 252 386 268 366 268H352" stroke="rgba(255,255,255,0.55)" stroke-width="9" stroke-linecap="round"/>
  <path d="M270 214C284 214 296 226 296 240C296 254 284 266 270 266C256 266 244 254 244 240C244 226 256 214 270 214Z" fill="rgba(15, 23, 42, 0.22)"/>
  <path d="M332 222H356" stroke="rgba(255,255,255,0.7)" stroke-width="7" stroke-linecap="round"/>
  <path d="M220 326C220 314 230 304 242 304H314C326 304 336 314 336 326" stroke="rgba(255,255,255,0.65)" stroke-width="10" stroke-linecap="round"/>
  <path d="M352 168H434C452 168 466 182 466 200V252C466 274 448 292 426 292H386" stroke="rgba(255,255,255,0.45)" stroke-width="9" stroke-linecap="round"/>
  <defs>
    <linearGradient id="paint0_linear" x1="120" y1="36" x2="480" y2="384" gradientUnits="userSpaceOnUse">
      <stop stop-color="#FBCFE8"/>
      <stop offset="0.6" stop-color="#C4B5FD"/>
      <stop offset="1" stop-color="#93C5FD"/>
    </linearGradient>
    <radialGradient id="paint1_radial" cx="0" cy="0" r="1" gradientUnits="userSpaceOnUse" gradientTransform="translate(188 240) rotate(90) scale(136)">
      <stop stop-color="#F9A8D4"/>
      <stop offset="1" stop-color="#F97316" stop-opacity="0"/>
    </radialGradient>
    <radialGradient id="paint2_radial" cx="0" cy="0" r="1" gradientUnits="userSpaceOnUse" gradientTransform="translate(430 168) rotate(90) scale(150)">
      <stop stop-color="#A855F7"/>
      <stop offset="1" stop-color="#6366F1" stop-opacity="0"/>
    </radialGradient>
    <linearGradient id="paint3_linear" x1="188" y1="170" x2="348" y2="298" gradientUnits="userSpaceOnUse">
      <stop stop-color="rgba(255,255,255,0.82)"/>
      <stop offset="1" stop-color="rgba(255,255,255,0.58)"/>
    </linearGradient>
  </defs>
</svg>

